<svg xmlns="http://www.w3.org/2000/svg" viewBox="0 0 391.95 144.52"><defs><style>.cls-1,.cls-2,.cls-6{fill:#f9a41c;}.cls-1,.cls-3,.cls-6{stroke:#4b5225;}.cls-1,.cls-3,.cls-5,.cls-6{stroke-miterlimit:10;}.cls-1,.cls-3{stroke-width:5.33px;}.cls-3,.cls-5,.cls-7{fill:none;}.cls-4{fill:#495123;}.cls-5{stroke:#495124;stroke-width:4.14px;}.cls-6{stroke-width:5.21px;}</style></defs><title>swtchAsset 1</title><g id="Layer_2" data-name="Layer 2"><g id="Layer_1-2" data-name="Layer 1"><path class="cls-1" d="M342.37,8.3l6.54,2.32A3.68,3.68,0,0,1,350,17l-8.39,6.68a3.72,3.72,0,0,1-2.55.79l-4.69-.33a3.68,3.68,0,0,1-2.68-5.89l6.54-8.67A3.67,3.67,0,0,1,342.37,8.3Z"/><path class="cls-2" d="M342.89,4.74l9.54,3.39A5.29,5.29,0,0,1,354,17.24L341.76,27a5.3,5.3,0,0,1-3.66,1.13l-6.86-.48a5.28,5.28,0,0,1-3.85-8.45L336.9,6.54A5.29,5.29,0,0,1,342.89,4.74Z"/><path class="cls-3" d="M342.89,4.74l9.54,3.39A5.29,5.29,0,0,1,354,17.24L341.76,27a5.3,5.3,0,0,1-3.66,1.13l-6.86-.48a5.28,5.28,0,0,1-3.85-8.45L336.9,6.54A5.29,5.29,0,0,1,342.89,4.74Z"/><path class="cls-4" d="M237.83,36.43q4.68,3.75,4.67,10.5v21a3.89,3.89,0,0,1-3.89,3.89h-7.73A3.89,3.89,0,0,1,227,67.9h0a.08.08,0,0,0-.15-.05q-3.51,4.64-10.66,4.64-6,0-9.45-3.26a11.66,11.66,0,0,1-3.41-8.82q0-5.69,3.8-8.63t11.09-3.1h8.69a.09.09,0,0,0,.09-.09,3.79,3.79,0,0,0-1.58-3A7.43,7.43,0,0,0,221,44.47a27.73,27.73,0,0,0-5.37.63c-.93.19-1.87.42-2.8.68a3.88,3.88,0,0,1-4.71-2.52l-1.06-3.18a3.89,3.89,0,0,1,2.51-4.95,61.64,61.64,0,0,1,6.06-1.51,48.33,48.33,0,0,1,9.16-.95Q233.17,32.67,237.83,36.43Zm-13.2,25.25A6.37,6.37,0,0,0,227,59.52a.07.07,0,0,0,0-.05v-3.4a.09.09,0,0,0-.08-.08h-5.4c-2.24,0-3.37,1-3.37,3.09a3.28,3.28,0,0,0,.92,2.49,3.55,3.55,0,0,0,2.59.88A6.31,6.31,0,0,0,224.63,61.68Z"/><path class="cls-4" d="M270,34.32a13.29,13.29,0,0,1,5.33-1.59A1.26,1.26,0,0,1,276.7,34V45.54a1.23,1.23,0,0,1-1.34,1.24q-.84-.06-1.68-.06a10.26,10.26,0,0,0-6.39,1.79,5.9,5.9,0,0,0-2.31,5V70.54a1.25,1.25,0,0,1-1.25,1.25H250.42a1.25,1.25,0,0,1-1.25-1.25V34.62a1.25,1.25,0,0,1,1.25-1.25h13.31A1.25,1.25,0,0,1,265,34.62v1a1.24,1.24,0,0,0,2.09.91A14,14,0,0,1,270,34.32Z"/><path class="cls-4" d="M329.76,33.37h10.68A2.57,2.57,0,0,1,343,35.94V69.23a2.56,2.56,0,0,1-2.56,2.56H329.76a2.56,2.56,0,0,1-2.56-2.56V35.94A2.56,2.56,0,0,1,329.76,33.37Z"/><path class="cls-4" d="M385.31,34.5a12.71,12.71,0,0,1,4.88,5.13A16.05,16.05,0,0,1,392,47.28v22a2.54,2.54,0,0,1-2.54,2.53H378.68a2.53,2.53,0,0,1-2.53-2.53V51.84A5.54,5.54,0,0,0,374.88,48a4.17,4.17,0,0,0-3.3-1.44,4.53,4.53,0,0,0-3.69,1.68,7,7,0,0,0-1.36,4.5v16.5A2.54,2.54,0,0,1,364,71.79H353.26a2.54,2.54,0,0,1-2.54-2.53V35.91a2.54,2.54,0,0,1,2.54-2.54H364a2.54,2.54,0,0,1,2.54,2.54v2.67a.08.08,0,0,0,.15,0,13.19,13.19,0,0,1,4.8-4.37,14.13,14.13,0,0,1,6.7-1.58A13.84,13.84,0,0,1,385.31,34.5Z"/><path class="cls-4" d="M245.59,95.29V126a3.86,3.86,0,0,1-3.87,3.86h-8.06a3.86,3.86,0,0,1-3.87-3.86v-1.2a.08.08,0,0,0-.15,0A12.86,12.86,0,0,1,225,129a13.65,13.65,0,0,1-6.54,1.55,13.14,13.14,0,0,1-6.95-1.83,12.72,12.72,0,0,1-4.74-5.13,16.28,16.28,0,0,1-1.72-7.65V95.29a3.87,3.87,0,0,1,3.87-3.87H217a3.87,3.87,0,0,1,3.87,3.87v16.07a5.93,5.93,0,0,0,1.16,3.83,3.73,3.73,0,0,0,3.06,1.44,4.09,4.09,0,0,0,3.44-1.68,7.35,7.35,0,0,0,1.26-4.5V95.29a3.87,3.87,0,0,1,3.87-3.87h8.06A3.87,3.87,0,0,1,245.59,95.29Z"/><path class="cls-4" d="M303.88,34.51a1.09,1.09,0,0,1-1.76.82A13.09,13.09,0,0,0,294,32.81a14.67,14.67,0,0,0-8,2.25,15,15,0,0,0-5.52,6.36,21.78,21.78,0,0,0-2,9.51,22.11,22.11,0,0,0,2,9.76,15.32,15.32,0,0,0,5.65,6.5,14.88,14.88,0,0,0,8.11,2.28A12.7,12.7,0,0,0,302,67.13a1.18,1.18,0,0,1,1.9.93v1A4.11,4.11,0,0,1,302,72.6a9.24,9.24,0,0,1-5.3,1.3c-3.12,0-6.22-1.5-9.33-.62a14.12,14.12,0,0,0-5.72,3.51A17.27,17.27,0,0,0,278.61,81a11.49,11.49,0,0,0-1.12,5.42c0,2.17.07,4.36.1,6.51,0,.91-.09,3-1.47,1.94a13.12,13.12,0,0,0-2.72-1.64A13.85,13.85,0,0,0,267.71,92a17.08,17.08,0,0,0-9.09,2.39,15.67,15.67,0,0,0-6,6.81,23.87,23.87,0,0,0-2.1,10.33,24.16,24.16,0,0,0,2.17,10.57,16.34,16.34,0,0,0,6.18,7,17.45,17.45,0,0,0,9.28,2.45A12.34,12.34,0,0,0,276,129a1.18,1.18,0,0,1,1.93.9h0A1.09,1.09,0,0,0,279,131h13.53a1.18,1.18,0,0,0,1.18-1.18V87.15A1.17,1.17,0,0,1,295,86c1,.09,2.07.14,3.12.14A27.73,27.73,0,0,0,309.32,84a17.32,17.32,0,0,0,7.59-6.12,16,16,0,0,0,2.7-9.23V34.56a1.18,1.18,0,0,0-1.18-1.19H305.08A1.19,1.19,0,0,0,303.88,34.51Zm-27.53,82.87a4.92,4.92,0,0,1-4.14,2,5,5,0,0,1-4.18-2,10.05,10.05,0,0,1,0-10.82,5,5,0,0,1,4.18-2,4.93,4.93,0,0,1,4.14,2,10.22,10.22,0,0,1,0,10.82Zm26.06-61a4.72,4.72,0,0,1-4.2,1.89,4.63,4.63,0,0,1-3.07-1.37,7.52,7.52,0,0,1-1.93-5.51,8.14,8.14,0,0,1,1.44-5.05,4.94,4.94,0,0,1,7.79,0,8.14,8.14,0,0,1,1.44,5.05A7.92,7.92,0,0,1,302.41,56.34Z"/><path class="cls-4" d="M342.16,81.2v45.16a3.47,3.47,0,0,1-3.48,3.47h-8.85a3.47,3.47,0,0,1-3.47-3.47v-.17a.08.08,0,0,0-.15,0,12.26,12.26,0,0,1-9.62,4.26,17.35,17.35,0,0,1-9.27-2.46,16.21,16.21,0,0,1-6.18-7A24.16,24.16,0,0,1,299,110.38a23.83,23.83,0,0,1,2.1-10.32,15.76,15.76,0,0,1,6-6.82,17.07,17.07,0,0,1,9.09-2.38A13.69,13.69,0,0,1,321.86,92a12.71,12.71,0,0,1,4.35,3.17.09.09,0,0,0,.15,0V81.2a3.47,3.47,0,0,1,3.47-3.48h8.85A3.48,3.48,0,0,1,342.16,81.2Zm-17.35,35a10.22,10.22,0,0,0,0-10.82,5,5,0,0,0-4.14-2,5,5,0,0,0-4.18,2,10.05,10.05,0,0,0,0,10.82,5,5,0,0,0,4.18,2A4.93,4.93,0,0,0,324.81,116.21Z"/><path class="cls-4" d="M368.56,141.32a17.85,17.85,0,0,1-10.32,2.84,21.44,21.44,0,0,1-7-1.09,20.56,20.56,0,0,1-2.72-1.16,3.85,3.85,0,0,1-1.5-5.49l2.47-3.9a3.8,3.8,0,0,1,4.64-1.53,6.58,6.58,0,0,0,2.55.53,4,4,0,0,0,3.8-2l.56-.91L347.4,96.77a3.84,3.84,0,0,1,3.53-5.35h7.66A3.84,3.84,0,0,1,362.22,94l6.6,19.07a.09.09,0,0,0,.17,0l5.38-18.86a3.84,3.84,0,0,1,3.69-2.79h7.24a3.84,3.84,0,0,1,3.59,5.22l-13.8,35.86A18.76,18.76,0,0,1,368.56,141.32Z"/><path class="cls-4" d="M163.13,15.9a10.16,10.16,0,0,1,10.16,10.16V49.41q0,8.16,5.87,8.16a5.85,5.85,0,0,0,4.24-1.7,5.53,5.53,0,0,0,1.75-4.12,5.86,5.86,0,0,0-1.64-4.21,5.4,5.4,0,0,0-4-1.7,7.12,7.12,0,0,0-3.86,1.48V30.42c1.81-.17,3.17-.25,4.1-.25q10.83,0,17.78,9.77a16.56,16.56,0,0,1,2.88,7.1q1.81,11.91-5.93,19.51a21.91,21.91,0,0,1-24.39,4.14,19.94,19.94,0,0,1-7.19-5.41Q157.95,59.37,158,50V15.9Z"/><path class="cls-4" d="M165,76a8.25,8.25,0,0,1,8.25,8.25v25.26q0,8.16,5.87,8.16a5.85,5.85,0,0,0,4.24-1.7,5.53,5.53,0,0,0,1.75-4.12,5.86,5.86,0,0,0-1.64-4.21,5.4,5.4,0,0,0-4-1.7,7,7,0,0,0-3.73,1.39.08.08,0,0,1-.13-.07V90.58a.1.1,0,0,1,.08-.09q2.65-.24,4-.24,10.11,0,16.83,8.51a19.14,19.14,0,0,1,4,9.92q1.09,10.86-6.13,17.95a21.89,21.89,0,0,1-24.39,4.15,20.08,20.08,0,0,1-7.19-5.42q-4.94-5.91-4.93-15.3v-34A.09.09,0,0,1,158,76Z"/><line class="cls-5" x1="132.28" y1="0.01" x2="133.07" y2="144.51"/><path class="cls-6" d="M2.79,4.55V83.83c0,3.82-.3,7.77-.14,11.54.31,7.39,3.84,15.33,7.7,21.5A51.45,51.45,0,0,0,51,141c15.46,1.06,30.32-5.17,41.4-16.05,20.31-19.94,18.52-54.28-3.51-72.1C75,41.6,57,38.31,39.72,42.7V18.49S38-1.32,2.79,4.55Z"/><path class="cls-7" d="M43.65,103.34a16.31,16.31,0,0,0,10.52,3.6,13.93,13.93,0,0,0,1.63-.11,16,16,0,0,0,7.87-3.07,15.82,15.82,0,0,0,5.26-6.43,15.15,15.15,0,0,0,1.52-6.67,14,14,0,0,0-.1-1.65,14.65,14.65,0,0,0-2.75-7.52,17.92,17.92,0,0,0-13.89-7.13h-.42A15.31,15.31,0,0,0,41.7,80.18a15.77,15.77,0,0,0-4.16,10.59,18.75,18.75,0,0,0,.1,2A14.91,14.91,0,0,0,43.65,103.34Z"/><path class="cls-4" d="M22.84,104.17A35.15,35.15,0,0,0,31,115.09a37.39,37.39,0,0,0,11.83,7.1,37,37,0,0,0,39-7.63,32.67,32.67,0,0,0,7.66-10.84,33.41,33.41,0,0,0,2.83-13.21v-.45a35.92,35.92,0,0,0-4.49-17.71A34.79,34.79,0,0,0,57.15,54.4a30.46,30.46,0,0,0-16.82,4.7V21.88A17,17,0,0,0,21.4,4.94l-1.63.18V90.71A30.51,30.51,0,0,0,22.84,104.17ZM42.84,79a15.33,15.33,0,0,1,11.59-5.82h.43a17.13,17.13,0,0,1,7.55,1.87,17.33,17.33,0,0,1,6.33,5.26,14.53,14.53,0,0,1,2.75,7.52,14.12,14.12,0,0,1,.11,1.65,15.16,15.16,0,0,1-1.53,6.67,15.82,15.82,0,0,1-5.26,6.43,16,16,0,0,1-7.87,3.07,13.93,13.93,0,0,1-1.63.11,16.31,16.31,0,0,1-10.52-3.6,14.93,14.93,0,0,1-6-10.6,18.43,18.43,0,0,1-.1-2A15.77,15.77,0,0,1,42.84,79Z"/></g></g></svg>