<svg xmlns="http://www.w3.org/2000/svg" viewBox="0 0 218.92 288.21"><defs><style>.cls-1{fill:#f9a41c;stroke:#4b5225;stroke-miterlimit:10;stroke-width:5.21px;}.cls-2{fill:none;}.cls-3{fill:#495123;}</style></defs><title>swtchAsset 1</title><g id="Layer_2" data-name="Layer 2"><g id="Layer_1-2" data-name="Layer 1"><path class="cls-1" d="M3,4.84v163c0,7.84-.62,16-.29,23.72.64,15.19,7.89,31.5,15.82,44.18,18.44,29.46,49,47.26,83.54,49.64,31.79,2.19,62.34-10.62,85.11-33,41.74-41,38.06-111.56-7.23-148.21C151.31,81,114.41,74.24,78.91,83.28V33.5S75.39-7.23,3,4.84Z"/><path class="cls-2" d="M87,207.91a33.45,33.45,0,0,0,21.62,7.4,27.35,27.35,0,0,0,3.35-.22,33.09,33.09,0,0,0,16.19-6.3A32.73,32.73,0,0,0,139,195.57a31.41,31.41,0,0,0,3.13-13.71A35,35,0,0,0,136.2,163a35.7,35.7,0,0,0-13-10.81,35.15,35.15,0,0,0-15.53-3.84h-.88q-14.16.5-23.82,12-8.56,9.87-8.56,21.77a36.82,36.82,0,0,0,.22,4.06A30.57,30.57,0,0,0,87,207.91Z"/><path class="cls-3" d="M44.2,209.62A72.22,72.22,0,0,0,61,232.07a76.82,76.82,0,0,0,24.31,14.6A76,76,0,0,0,165.56,231a67.38,67.38,0,0,0,15.75-22.28,68.62,68.62,0,0,0,5.81-27.16v-.93a73.79,73.79,0,0,0-9.22-36.4,71.52,71.52,0,0,0-63.17-36.9q-19.55,0-34.58,9.68V40.47A35,35,0,0,0,41.23,5.65L37.89,6V182A62.75,62.75,0,0,0,44.2,209.62ZM85.32,158Q95,146.5,109.13,146H110a35.12,35.12,0,0,1,15.53,3.84,35.53,35.53,0,0,1,13,10.8,30,30,0,0,1,5.65,15.46,27.63,27.63,0,0,1,.22,3.4,31.27,31.27,0,0,1-3.13,13.71,32.58,32.58,0,0,1-10.81,13.22,33,33,0,0,1-16.19,6.31,29.35,29.35,0,0,1-3.35.22,33.5,33.5,0,0,1-21.62-7.41A30.58,30.58,0,0,1,77,183.79a39.29,39.29,0,0,1-.22-4.06Q76.75,167.84,85.32,158Z"/></g></g></svg>