<svg xmlns="http://www.w3.org/2000/svg" viewBox="0 0 234 333"><defs><style>.cls-1,.cls-4,.cls-5{fill:#f9a41c;}.cls-1,.cls-4,.cls-6{stroke:#4b5225;stroke-miterlimit:10;}.cls-1{stroke-width:5.21px;}.cls-2,.cls-6{fill:none;}.cls-3{fill:#495123;}.cls-4,.cls-6{stroke-width:5.33px;}</style></defs><title>swtchAsset 1</title><g id="Layer_2" data-name="Layer 2"><g id="Layer_1-2" data-name="Layer 1"><path class="cls-1" d="M50.58,4V105.66c0,4.89-.38,10-.18,14.79.4,9.48,4.93,19.65,9.87,27.56a66,66,0,0,0,52.11,31c19.83,1.37,38.88-6.62,53.09-20.57,26-25.57,23.74-69.59-4.51-92.45-17.86-14.45-40.88-18.67-63-13v-31S95.74-3.53,50.58,4Z"/><path class="cls-2" d="M103,130.66a20.91,20.91,0,0,0,13.49,4.62,15.92,15.92,0,0,0,2.09-.14A21.13,21.13,0,0,0,135.39,123a19.6,19.6,0,0,0,2-8.56,18.07,18.07,0,0,0-.14-2.12,18.74,18.74,0,0,0-3.52-9.64,22.25,22.25,0,0,0-8.12-6.74,21.83,21.83,0,0,0-9.68-2.39h-.55A19.66,19.66,0,0,0,100.47,101a20.27,20.27,0,0,0-5.34,13.58,23.69,23.69,0,0,0,.14,2.53A19.07,19.07,0,0,0,103,130.66Z"/><path class="cls-3" d="M76.29,131.73a44.8,44.8,0,0,0,10.51,14A47.8,47.8,0,0,0,102,154.84a47.44,47.44,0,0,0,50-9.79,41.83,41.83,0,0,0,9.82-13.89,42.71,42.71,0,0,0,3.63-16.94v-.58a46.12,46.12,0,0,0-5.75-22.71,44.58,44.58,0,0,0-39.41-23,39,39,0,0,0-21.56,6V26.22A21.86,21.86,0,0,0,74.44,4.5l-2.08.24V114.47A39.21,39.21,0,0,0,76.29,131.73Zm25.65-32.22a19.63,19.63,0,0,1,14.85-7.46h.55a21.89,21.89,0,0,1,9.69,2.4,22.19,22.19,0,0,1,8.11,6.73,18.81,18.81,0,0,1,3.53,9.65,17.83,17.83,0,0,1,.13,2.12,19.53,19.53,0,0,1-2,8.55,20.26,20.26,0,0,1-6.74,8.25,20.73,20.73,0,0,1-10.1,3.93,17.72,17.72,0,0,1-2.09.14,20.86,20.86,0,0,1-13.48-4.62,19.05,19.05,0,0,1-7.71-13.58,23.82,23.82,0,0,1-.13-2.53A20.25,20.25,0,0,1,101.94,99.51Z"/><path class="cls-4" d="M184.41,197.13l6.54,2.33A3.67,3.67,0,0,1,192,205.8l-8.39,6.68a3.68,3.68,0,0,1-2.55.8l-4.69-.33a3.68,3.68,0,0,1-2.68-5.89l6.54-8.67A3.69,3.69,0,0,1,184.41,197.13Z"/><path class="cls-5" d="M184.93,193.58l9.54,3.39a5.28,5.28,0,0,1,1.53,9.11l-12.19,9.7a5.27,5.27,0,0,1-3.66,1.14l-6.86-.48a5.29,5.29,0,0,1-3.85-8.45L179,195.38A5.28,5.28,0,0,1,184.93,193.58Z"/><path class="cls-6" d="M184.93,193.58l9.54,3.39a5.28,5.28,0,0,1,1.53,9.11l-12.19,9.7a5.27,5.27,0,0,1-3.66,1.14l-6.86-.48a5.29,5.29,0,0,1-3.85-8.45L179,195.38A5.28,5.28,0,0,1,184.93,193.58Z"/><path class="cls-3" d="M79.88,225.27q4.66,3.75,4.67,10.5v21a3.91,3.91,0,0,1-3.9,3.9H72.92a3.9,3.9,0,0,1-3.89-3.9h0a.08.08,0,0,0-.15-.05q-3.52,4.65-10.67,4.65-6,0-9.44-3.27a11.58,11.58,0,0,1-3.41-8.81q0-5.69,3.79-8.64t11.1-3.09h8.68s.1,0,.09-.09a3.78,3.78,0,0,0-1.57-3,7.43,7.43,0,0,0-4.39-1.09,27.91,27.91,0,0,0-5.38.63c-.93.19-1.86.41-2.8.68a3.87,3.87,0,0,1-4.7-2.53l-1.06-3.18A3.87,3.87,0,0,1,51.63,224a58.76,58.76,0,0,1,6-1.51,48.43,48.43,0,0,1,9.17-1Q75.21,221.51,79.88,225.27ZM66.67,250.51A6.19,6.19,0,0,0,69,248.36a.08.08,0,0,0,0-.05v-3.4a.08.08,0,0,0-.09-.08H63.55q-3.37,0-3.37,3.09a3.3,3.3,0,0,0,.91,2.49,3.64,3.64,0,0,0,2.6.88A6.17,6.17,0,0,0,66.67,250.51Z"/><path class="cls-3" d="M112,223.16a13.34,13.34,0,0,1,5.33-1.59,1.26,1.26,0,0,1,1.38,1.25v11.56a1.25,1.25,0,0,1-1.34,1.24c-.57,0-1.13-.07-1.68-.07a10.16,10.16,0,0,0-6.39,1.8,5.89,5.89,0,0,0-2.32,5v17.08a1.25,1.25,0,0,1-1.25,1.25H92.47a1.25,1.25,0,0,1-1.25-1.25V223.46a1.25,1.25,0,0,1,1.25-1.25h13.3a1.25,1.25,0,0,1,1.25,1.25v.95a1.25,1.25,0,0,0,2.1.91A14,14,0,0,1,112,223.16Z"/><path class="cls-3" d="M171.8,222.21h10.68a2.56,2.56,0,0,1,2.56,2.56v33.3a2.56,2.56,0,0,1-2.56,2.56H171.8a2.56,2.56,0,0,1-2.56-2.56v-33.3A2.56,2.56,0,0,1,171.8,222.21Z"/><path class="cls-3" d="M227.36,223.34a12.68,12.68,0,0,1,4.88,5.12,16.07,16.07,0,0,1,1.76,7.66v22a2.54,2.54,0,0,1-2.54,2.54H220.73a2.54,2.54,0,0,1-2.54-2.54V240.68a5.63,5.63,0,0,0-1.26-3.83,4.2,4.2,0,0,0-3.3-1.43,4.5,4.5,0,0,0-3.69,1.68,6.93,6.93,0,0,0-1.37,4.5v16.49a2.54,2.54,0,0,1-2.53,2.54H195.3a2.54,2.54,0,0,1-2.53-2.54V224.75a2.54,2.54,0,0,1,2.53-2.54H206a2.54,2.54,0,0,1,2.53,2.54v2.67a.08.08,0,0,0,.15,0,13.26,13.26,0,0,1,4.8-4.37,14.17,14.17,0,0,1,6.71-1.58A13.86,13.86,0,0,1,227.36,223.34Z"/><path class="cls-3" d="M87.64,284.12V314.8a3.87,3.87,0,0,1-3.87,3.87H75.7a3.86,3.86,0,0,1-3.86-3.87v-1.19a.09.09,0,0,0-.16,0,12.78,12.78,0,0,1-4.62,4.26,13.6,13.6,0,0,1-6.53,1.54,13.13,13.13,0,0,1-7-1.82,12.64,12.64,0,0,1-4.74-5.13,16.28,16.28,0,0,1-1.72-7.65V284.12A3.86,3.86,0,0,1,51,280.26h8.07a3.86,3.86,0,0,1,3.87,3.86V300.2A5.89,5.89,0,0,0,64.08,304a3.72,3.72,0,0,0,3,1.44,4.06,4.06,0,0,0,3.44-1.69,7.25,7.25,0,0,0,1.27-4.49V284.12a3.86,3.86,0,0,1,3.86-3.86h8.07A3.86,3.86,0,0,1,87.64,284.12Z"/><path class="cls-3" d="M145.93,223.35a1.1,1.1,0,0,1-1.77.82,13.05,13.05,0,0,0-8.14-2.52,14.72,14.72,0,0,0-8,2.25,15,15,0,0,0-5.51,6.35,21.82,21.82,0,0,0-2,9.52,22.14,22.14,0,0,0,2,9.76,15.39,15.39,0,0,0,5.65,6.5,14.94,14.94,0,0,0,8.12,2.28A12.69,12.69,0,0,0,144,256a1.19,1.19,0,0,1,1.91.93v1a4.11,4.11,0,0,1-1.86,3.55,9.26,9.26,0,0,1-5.31,1.29c-3.11,0-6.21-1.49-9.32-.62a14.08,14.08,0,0,0-5.72,3.52,17,17,0,0,0-3.06,4.16,11.49,11.49,0,0,0-1.13,5.42c0,2.17.07,4.35.11,6.51,0,.91-.09,3-1.47,1.94a12.7,12.7,0,0,0-2.72-1.64,13.85,13.85,0,0,0-5.69-1.16,17.05,17.05,0,0,0-9.09,2.39,15.67,15.67,0,0,0-6,6.81,23.83,23.83,0,0,0-2.11,10.32A24.16,24.16,0,0,0,94.73,311a16.21,16.21,0,0,0,6.18,7,17.35,17.35,0,0,0,9.27,2.46,12.35,12.35,0,0,0,7.83-2.57,1.18,1.18,0,0,1,1.93.91h0a1.1,1.1,0,0,0,1.1,1.1h13.52a1.18,1.18,0,0,0,1.19-1.18V276a1.19,1.19,0,0,1,1.3-1.18c1,.09,2.06.14,3.12.14a27.59,27.59,0,0,0,11.2-2.14A17.41,17.41,0,0,0,159,266.7a16,16,0,0,0,2.7-9.23V223.39a1.18,1.18,0,0,0-1.18-1.18H147.12A1.19,1.19,0,0,0,145.93,223.35ZM118.4,306.21a4.93,4.93,0,0,1-4.14,2,5,5,0,0,1-4.18-2,10,10,0,0,1,0-10.81,5,5,0,0,1,4.18-2,4.93,4.93,0,0,1,4.14,2,10.26,10.26,0,0,1,0,10.81Zm26-61a4.89,4.89,0,0,1-7.26.52,7.54,7.54,0,0,1-1.94-5.51,8.17,8.17,0,0,1,1.44-5.06,5,5,0,0,1,7.8,0,8.17,8.17,0,0,1,1.44,5.06A7.88,7.88,0,0,1,144.45,245.18Z"/><path class="cls-3" d="M184.2,270V315.2a3.47,3.47,0,0,1-3.47,3.47h-8.85a3.47,3.47,0,0,1-3.48-3.47V315a.08.08,0,0,0-.14,0,12.26,12.26,0,0,1-9.62,4.25,17.35,17.35,0,0,1-9.27-2.45,16.21,16.21,0,0,1-6.18-7A24.16,24.16,0,0,1,141,299.22a23.73,23.73,0,0,1,2.11-10.33,15.65,15.65,0,0,1,6-6.81,17.09,17.09,0,0,1,9.1-2.39,13.88,13.88,0,0,1,5.69,1.16,13.07,13.07,0,0,1,4.35,3.18.08.08,0,0,0,.14-.06V270a3.48,3.48,0,0,1,3.48-3.48h8.85A3.47,3.47,0,0,1,184.2,270Zm-17.34,35a10.27,10.27,0,0,0,0-10.82,4.94,4.94,0,0,0-4.15-2,5,5,0,0,0-4.18,2,10.05,10.05,0,0,0,0,10.82,5,5,0,0,0,4.18,2A4.94,4.94,0,0,0,166.86,305.05Z"/><path class="cls-3" d="M210.61,330.15A17.83,17.83,0,0,1,200.28,333a21.42,21.42,0,0,1-7-1.09,20.68,20.68,0,0,1-2.73-1.16,3.86,3.86,0,0,1-1.5-5.49l2.48-3.9a3.8,3.8,0,0,1,4.64-1.54,6.35,6.35,0,0,0,2.55.54,4,4,0,0,0,3.79-2l.56-.91-13.65-31.87a3.84,3.84,0,0,1,3.53-5.35h7.67a3.83,3.83,0,0,1,3.63,2.58l6.6,19.07a.08.08,0,0,0,.16,0L216.41,283a3.85,3.85,0,0,1,3.7-2.78h7.24a3.83,3.83,0,0,1,3.58,5.21l-13.79,35.87A18.68,18.68,0,0,1,210.61,330.15Z"/><path class="cls-3" d="M5.17,204.74A10.16,10.16,0,0,1,15.34,214.9v23.35q0,8.16,5.86,8.16a5.87,5.87,0,0,0,4.25-1.7,5.57,5.57,0,0,0,1.74-4.13,5.79,5.79,0,0,0-1.64-4.2,5.34,5.34,0,0,0-4-1.7,7.15,7.15,0,0,0-3.85,1.47V219.26c1.8-.17,3.17-.25,4.1-.25q10.83,0,17.77,9.76a16.6,16.6,0,0,1,2.88,7.11q1.83,11.91-5.93,19.51a21.17,21.17,0,0,1-15.42,6.15,21.22,21.22,0,0,1-9-2,20.18,20.18,0,0,1-7.2-5.41Q0,248.21,0,238.82V204.74Z"/><path class="cls-3" d="M7.09,264.82a8.25,8.25,0,0,1,8.25,8.25v25.26q0,8.16,5.86,8.16a5.87,5.87,0,0,0,4.25-1.7,5.57,5.57,0,0,0,1.74-4.13,5.81,5.81,0,0,0-1.64-4.2,5.37,5.37,0,0,0-4-1.7,7,7,0,0,0-3.72,1.39.08.08,0,0,1-.13-.07V279.41a.08.08,0,0,1,.08-.08q2.64-.24,4-.24,10.11,0,16.83,8.51a19.18,19.18,0,0,1,4,9.92q1.11,10.86-6.13,18a21.17,21.17,0,0,1-15.42,6.15,21.22,21.22,0,0,1-9-2,20.18,20.18,0,0,1-7.2-5.41Q0,308.29,0,298.9v-34a.09.09,0,0,1,.09-.08Z"/></g></g></svg>